<svg xmlns="http://www.w3.org/2000/svg" width="67.598" height="78.659" viewBox="0 0 67.598 78.659"><defs><style>.a{fill:#fff;}</style></defs><g transform="translate(2.668)"><path class="a" d="M417.32,25.329h13.974L416.586,10.883V24.6a.734.734,0,0,0,.734.733Zm0,0" transform="translate(-367.725 -9.545)"/><path class="a" d="M49.594,20.392a5.348,5.348,0,0,1-5.342-5.342V0H5.931a8.608,8.608,0,0,0-8.6,8.6V70.061a8.608,8.608,0,0,0,8.6,8.6h50.4a8.608,8.608,0,0,0,8.6-8.6V20.392ZM44.327,59.609H14.645a2.3,2.3,0,1,1,0-4.609H44.327a2.3,2.3,0,0,1,0,4.609ZM12.34,48.087a2.3,2.3,0,0,1,2.3-2.3H41.132a2.3,2.3,0,0,1,0,4.609H14.645A2.3,2.3,0,0,1,12.34,48.087Zm34.789-6.913H14.645a2.3,2.3,0,1,1,0-4.609H47.129a2.3,2.3,0,1,1,0,4.609Zm0,0" transform="translate(0 0)"/></g></svg>