<svg xmlns="http://www.w3.org/2000/svg" width="24.313" height="24.313" viewBox="0 0 24.313 24.313"><defs><style>.a{fill:#0bfbca;}</style></defs><g transform="translate(5.773 3.055)"><path class="a" d="M139.412,64.6a.916.916,0,0,0-1.3,0L127.124,75.558l-3.966-4.308a.916.916,0,0,0-1.348,1.241l4.612,5.009a.915.915,0,0,0,.655.3h.02a.917.917,0,0,0,.647-.267l11.668-11.637A.916.916,0,0,0,139.412,64.6Z" transform="translate(-121.568 -64.327)"/></g><path class="a" d="M23.4,11.24a.916.916,0,0,0-.916.916A10.324,10.324,0,1,1,12.156,1.833a.916.916,0,1,0,0-1.833A12.156,12.156,0,1,0,24.313,12.156.916.916,0,0,0,23.4,11.24Z"/></svg>