<svg xmlns="http://www.w3.org/2000/svg" width="14.119" height="14.119" viewBox="0 0 14.119 14.119"><defs><style>.a{fill:#475993;}</style></defs><path class="a" d="M12.218,0H1.9A1.9,1.9,0,0,0,0,1.9V12.216a1.9,1.9,0,0,0,1.9,1.9H6.991L7,9.074H5.689a.309.309,0,0,1-.309-.308L5.374,7.139a.309.309,0,0,1,.309-.31H6.991V5.257A2.567,2.567,0,0,1,9.732,2.441h1.335a.309.309,0,0,1,.309.309V4.121a.309.309,0,0,1-.309.309h-.819c-.885,0-1.056.42-1.056,1.037v1.36h1.944a.309.309,0,0,1,.307.346L11.25,8.8a.309.309,0,0,1-.307.273H9.2l-.009,5.045h3.027a1.9,1.9,0,0,0,1.9-1.9V1.9A1.9,1.9,0,0,0,12.218,0Z" transform="translate(-0.002)"/></svg>