<svg xmlns="http://www.w3.org/2000/svg" xmlns:xlink="http://www.w3.org/1999/xlink" width="14.812" height="14.812" viewBox="0 0 14.812 14.812"><defs><style>.a{fill:url(#a);}.b{fill:url(#b);}.c{fill:url(#c);}</style><linearGradient id="a" x1="0.5" y1="0.008" x2="0.5" y2="0.998" gradientUnits="objectBoundingBox"><stop offset="0" stop-color="#e09b3d"/><stop offset="0.3" stop-color="#c74c4d"/><stop offset="0.6" stop-color="#c21975"/><stop offset="1" stop-color="#7024c4"/></linearGradient><linearGradient id="b" y1="-0.451" y2="1.462" xlink:href="#a"/><linearGradient id="c" y1="-1.396" y2="6.586" xlink:href="#a"/></defs><path class="a" d="M10.4,0H4.413A4.418,4.418,0,0,0,0,4.413V10.4a4.418,4.418,0,0,0,4.413,4.413H10.4A4.418,4.418,0,0,0,14.812,10.4V4.413A4.418,4.418,0,0,0,10.4,0Zm2.922,10.4A2.923,2.923,0,0,1,10.4,13.322H4.413A2.923,2.923,0,0,1,1.49,10.4V4.413A2.922,2.922,0,0,1,4.413,1.49H10.4a2.922,2.922,0,0,1,2.922,2.922V10.4Z"/><path class="b" d="M136.831,133a3.831,3.831,0,1,0,3.831,3.831A3.835,3.835,0,0,0,136.831,133Zm0,6.172a2.341,2.341,0,1,1,2.341-2.341A2.341,2.341,0,0,1,136.831,139.172Z" transform="translate(-129.425 -129.425)"/><circle class="c" cx="0.918" cy="0.918" r="0.918" transform="translate(10.326 2.686)"/></svg>