<svg xmlns="http://www.w3.org/2000/svg" width="14.738" height="14.738" viewBox="0 0 14.738 14.738"><defs><style>.a{fill:#0077b7;}</style></defs><path class="a" d="M13.405,0H1.333A1.333,1.333,0,0,0,0,1.333V13.405a1.333,1.333,0,0,0,1.333,1.333H13.405a1.333,1.333,0,0,0,1.333-1.333V1.333A1.333,1.333,0,0,0,13.405,0ZM4.561,12.726a.388.388,0,0,1-.388.388H2.521a.388.388,0,0,1-.388-.388V5.8a.388.388,0,0,1,.388-.388H4.173a.388.388,0,0,1,.388.388ZM3.347,4.762A1.569,1.569,0,1,1,4.916,3.193,1.569,1.569,0,0,1,3.347,4.762Zm9.845,8a.357.357,0,0,1-.357.357H11.063a.357.357,0,0,1-.357-.357V9.51c0-.484.142-2.123-1.266-2.123-1.092,0-1.314,1.121-1.358,1.625v3.745a.357.357,0,0,1-.357.357H6.011a.357.357,0,0,1-.357-.357V5.772a.357.357,0,0,1,.357-.357H7.725a.357.357,0,0,1,.357.357v.6A2.433,2.433,0,0,1,10.37,5.3c2.838,0,2.822,2.651,2.822,4.108v3.351Z"/></svg>