<svg xmlns="http://www.w3.org/2000/svg" width="32.966" height="27.894" viewBox="0 0 32.966 27.894"><defs><style>.a{fill:#0e1b59;}</style></defs><g transform="translate(32.966 64.441) rotate(180)"><g transform="translate(0 36.547)"><path class="a" d="M11.411,36.547H3.8a3.669,3.669,0,0,0-2.695,1.109A3.669,3.669,0,0,0,0,40.351v7.607a3.667,3.667,0,0,0,1.109,2.694A3.67,3.67,0,0,0,3.8,51.762H8.241a1.894,1.894,0,0,1,1.9,1.9V54.3a4.887,4.887,0,0,1-1.486,3.586,4.887,4.887,0,0,1-3.586,1.486H3.8a1.22,1.22,0,0,0-.892.377,1.218,1.218,0,0,0-.376.891v2.536a1.22,1.22,0,0,0,.376.892,1.22,1.22,0,0,0,.892.377H5.072A9.884,9.884,0,0,0,9,63.638a10.219,10.219,0,0,0,3.239-2.169,10.222,10.222,0,0,0,2.169-3.239,9.882,9.882,0,0,0,.8-3.932V40.351a3.788,3.788,0,0,0-3.8-3.8Z" transform="translate(0 -36.547)"/><path class="a" d="M269.922,37.656a3.668,3.668,0,0,0-2.694-1.109H259.62a3.787,3.787,0,0,0-3.8,3.8v7.607a3.787,3.787,0,0,0,3.8,3.8h4.438a1.894,1.894,0,0,1,1.9,1.9V54.3a5.073,5.073,0,0,1-5.072,5.071H259.62a1.286,1.286,0,0,0-1.268,1.268v2.536a1.286,1.286,0,0,0,1.268,1.268h1.268a9.885,9.885,0,0,0,3.933-.8,10.048,10.048,0,0,0,5.408-5.409,9.882,9.882,0,0,0,.8-3.932V40.351A3.667,3.667,0,0,0,269.922,37.656Z" transform="translate(-238.066 -36.547)"/></g></g></svg>