<svg xmlns="http://www.w3.org/2000/svg" width="16" height="16" viewBox="0 0 16 16"><defs><style>.a{fill:#039be5;}.b{fill:#fff;}</style></defs><g transform="translate(-0.238 -0.238)"><circle class="a" cx="8" cy="8" r="8" transform="translate(0.238 0.238)"/><path class="b" d="M5.3,10.324l7.943-3.062c.369-.133.691.09.571.647h0L12.463,14.28c-.1.452-.369.562-.744.349L9.659,13.111l-.993.957a.519.519,0,0,1-.415.2l.146-2.1,3.817-3.448c.166-.146-.037-.229-.256-.083l-4.717,2.97-2.033-.634c-.441-.14-.451-.441.093-.654Z" transform="translate(-1.531 -2.265)"/></g></svg>