<svg xmlns="http://www.w3.org/2000/svg" xmlns:xlink="http://www.w3.org/1999/xlink" width="32.316" height="32.316" viewBox="0 0 32.316 32.316"><defs><style>.a{fill:url(#a);}.b{fill:url(#b);}</style><linearGradient id="a" x1="-0.056" y1="1.162" x2="-0.056" y2="1.287" gradientUnits="objectBoundingBox"><stop offset="0" stop-color="#9a9a9a"/><stop offset="1" stop-color="#00e7f0"/></linearGradient><linearGradient id="b" x1="-0.428" y1="2.619" x2="-0.428" y2="3.015" xlink:href="#a"/></defs><g transform="translate(32.316) rotate(90)"><path class="a" d="M16.158,32.316A16.158,16.158,0,1,1,32.316,16.158,16.158,16.158,0,0,1,16.158,32.316Zm0-31.239A15.081,15.081,0,1,0,31.239,16.158,15.081,15.081,0,0,0,16.158,1.077Z"/><path class="b" d="M114.96,170.219a.538.538,0,0,1-.381-.158l-8.76-8.76-8.76,8.76a.539.539,0,1,1-.775-.748l.013-.013,9.141-9.141a.539.539,0,0,1,.762,0l9.141,9.141a.539.539,0,0,1-.381.919Z" transform="translate(-89.662 -149.23)"/></g></svg>