<svg xmlns="http://www.w3.org/2000/svg" width="14.698" height="14.818" viewBox="0 0 14.698 14.818"><defs><style>.a{fill:#7ad06d;}</style></defs><g transform="translate(-1.69 0)"><path class="a" d="M8.68.009A7.352,7.352,0,0,0,2.49,10.687l-.78,3.787a.286.286,0,0,0,.346.336l3.711-.879A7.35,7.35,0,1,0,8.68.009Zm4.428,11.409A5.758,5.758,0,0,1,6.478,12.5l-.517-.257-2.275.539.479-2.325-.255-.5A5.759,5.759,0,0,1,4.97,3.28a5.754,5.754,0,1,1,8.138,8.138Z" transform="translate(0 0)"/><path class="a" d="M111.85,112.553l-1.424-.409a.531.531,0,0,0-.525.138l-.348.355a.519.519,0,0,1-.564.119,7.6,7.6,0,0,1-2.452-2.162.519.519,0,0,1,.041-.575l.3-.393a.531.531,0,0,0,.065-.539l-.6-1.355a.531.531,0,0,0-.829-.19,2.394,2.394,0,0,0-.926,1.412c-.1,1,.327,2.255,1.944,3.764,1.869,1.744,3.365,1.975,4.339,1.738a2.394,2.394,0,0,0,1.273-1.11A.531.531,0,0,0,111.85,112.553Z" transform="translate(-99.244 -103.61)"/></g></svg>